<?xml version="1.0" encoding="UTF-8"?>
<svg width="454px" height="454px" viewBox="0 0 454 454" version="1.1" xmlns="http://www.w3.org/2000/svg" xmlns:xlink="http://www.w3.org/1999/xlink">
    <title>Group 4@2x</title>
    <g id="Soigned-Off" stroke="none" stroke-width="1" fill="none" fill-rule="evenodd">
        <g id="Group-2" transform="translate(227.2379, 227) rotate(45) translate(-227.2379, -227)translate(60, 74)" fill="#5338F9">
            <rect id="Rectangle" x="0" y="0" width="71.1650485" height="21.3488372" rx="10.6744186"></rect>
            <rect id="Rectangle" x="0" y="35.5813953" width="142.330097" height="21.3488372" rx="10.6744186"></rect>
            <rect id="Rectangle" x="0" y="71.1627907" width="49.815534" height="21.3488372" rx="10.6744186"></rect>
            <rect id="Rectangle" x="0" y="106.744186" width="99.631068" height="21.3488372" rx="10.6744186"></rect>
            <rect id="Rectangle" x="0" y="142.325581" width="99.631068" height="21.3488372" rx="10.6744186"></rect>
            <rect id="Rectangle" x="78.2815534" y="177.906977" width="21.3495146" height="21.3488372" rx="10.6744186"></rect>
            <rect id="Rectangle" x="0" y="177.906977" width="71.1650485" height="21.3488372" rx="10.6744186"></rect>
            <rect id="Rectangle" x="0" y="249.069767" width="71.1650485" height="21.3488372" rx="10.6744186"></rect>
            <rect id="Rectangle" x="0" y="284.651163" width="42.6990291" height="21.3488372" rx="10.6744186"></rect>
            <rect id="Rectangle" x="49.815534" y="284.651163" width="284.660194" height="21.3488372" rx="10.6744186"></rect>
            <rect id="Rectangle" x="78.2815534" y="249.069767" width="92.5145631" height="21.3488372" rx="10.6744186"></rect>
            <rect id="Rectangle" x="177.912621" y="249.069767" width="156.563107" height="21.3488372" rx="10.6744186"></rect>
            <rect id="Rectangle" x="0" y="213.488372" width="21.3495146" height="21.3488372" rx="10.6744186"></rect>
            <rect id="Rectangle" x="28.4660194" y="213.488372" width="71.1650485" height="21.3488372" rx="10.6744186"></rect>
            <rect id="Rectangle" x="106.747573" y="213.488372" width="227.728155" height="21.3488372" rx="10.6744186"></rect>
            <rect id="Rectangle" x="56.9320388" y="71.1627907" width="135.213592" height="21.3488372" rx="10.6744186"></rect>
            <rect id="Rectangle" x="199.262136" y="71.1627907" width="135.213592" height="21.3488372" rx="10.6744186"></rect>
            <rect id="Rectangle" x="149.446602" y="35.5813953" width="185.029126" height="21.3488372" rx="10.6744186"></rect>
            <rect id="Rectangle" x="106.747573" y="0" width="227.728155" height="21.3488372" rx="10.6744186"></rect>
            <rect id="Rectangle" x="78.2815534" y="0" width="21.3495146" height="21.3488372" rx="10.6744186"></rect>
        </g>
    </g>
</svg>